<!DOCTYPE svg PUBLIC "-//W3C//DTD SVG 1.1//EN" "http://www.w3.org/Graphics/SVG/1.1/DTD/svg11.dtd">
<!-- Uploaded to: SVG Repo, www.svgrepo.com, Transformed by: SVG Repo Mixer Tools -->
<svg fill="#050505" height="64px" width="64px" version="1.1" id="Capa_1" xmlns="http://www.w3.org/2000/svg" xmlns:xlink="http://www.w3.org/1999/xlink" viewBox="0 0 361.663 361.663" xml:space="preserve" stroke="#050505">
<g id="SVGRepo_bgCarrier" stroke-width="0"/>
<g id="SVGRepo_tracerCarrier" stroke-linecap="round" stroke-linejoin="round" stroke="#CCCCCC" stroke-width="2.169978"/>
<g id="SVGRepo_iconCarrier"> <g> <path d="M118.611,14.423c-2.28-3.273-6.065-5.418-10.356-5.418c-6.971,0-12.621,5.65-12.621,12.621c0,3.245,1.235,6.194,3.247,8.43 c-34.788,35.462-38.552,92.105-6.897,132.052l156.754-124.21C217.084-2.046,161.084-11.333,118.611,14.423z M96.197,117.377 c-0.472,0.104-0.942,0.154-1.405,0.154c-2.984,0-5.673-2.068-6.342-5.102c-0.897-4.071-1.439-8.259-1.609-12.445 c-0.146-3.587,2.643-6.613,6.229-6.759c3.555-0.146,6.613,2.642,6.759,6.23c0.14,3.425,0.583,6.849,1.316,10.176 C101.917,113.136,99.703,116.604,96.197,117.377z M116.919,55.672c-7.38,7.382-12.661,16.614-15.271,26.699 c-0.759,2.929-3.397,4.873-6.288,4.873c-0.539,0-1.087-0.067-1.634-0.209c-3.475-0.899-5.563-4.446-4.664-7.921 c3.19-12.328,9.645-23.612,18.663-32.633c2.539-2.539,6.653-2.54,9.192-0.001C119.457,49.018,119.457,53.134,116.919,55.672z"/> <path d="M225.605,256.07c38.335-13.997,65.702-50.783,65.702-93.962H91.983h-0.676c0,43.179,27.365,79.965,65.7,93.962 l-47.095,81.719c-2.758,4.785-1.114,10.9,3.671,13.657c1.573,0.907,3.29,1.337,4.983,1.337c3.459,0,6.823-1.796,8.674-5.008 l49.945-86.664c1.365,0.193,2.738,0.363,4.121,0.501v90.051c0,5.523,4.477,10,10,10c5.522,0,10-4.477,10-10v-90.051 c1.383-0.138,2.755-0.308,4.119-0.501l49.945,86.664c1.851,3.212,5.215,5.008,8.674,5.008c1.693,0,3.41-0.431,4.983-1.337 c4.785-2.757,6.429-8.872,3.671-13.657L225.605,256.07z M238.137,211.359c2.314-2.51,4.423-5.245,6.266-8.128 c1.934-3.025,5.954-3.909,8.979-1.975c3.024,1.934,3.908,5.953,1.975,8.977c-2.253,3.524-4.83,6.867-7.66,9.936 c-1.281,1.39-3.028,2.094-4.781,2.094c-1.575,0-3.154-0.569-4.403-1.721C235.871,218.111,235.704,213.999,238.137,211.359z M195.092,243.233c-3.59,0-6.5-2.91-6.5-6.5c0-3.59,2.91-6.5,6.5-6.5c10.438,0,20.699-2.794,29.677-8.079 c3.091-1.821,7.077-0.791,8.899,2.303c1.821,3.093,0.79,7.078-2.304,8.899C220.39,239.817,207.847,243.233,195.092,243.233z"/> <path d="M231.68,74.265c9.93,18.738-35.285,62.016,0,71.349C220.916,125.188,266.85,83.546,231.68,74.265z"/> <path d="M206.157,95.459c5.996,12.85-25.664,40.213-2.42,47.641C197.243,129.098,229.327,102.848,206.157,95.459z"/> </g> </g>
</svg>